<?xml version="1.0" encoding="utf-8"?>
<!-- Generator: Adobe Illustrator 16.2.1, SVG Export Plug-In . SVG Version: 6.00 Build 0)  -->
<!DOCTYPE svg PUBLIC "-//W3C//DTD SVG 1.1//EN" "http://www.w3.org/Graphics/SVG/1.1/DTD/svg11.dtd">
<svg version="1.1" id="Layer_1" xmlns="http://www.w3.org/2000/svg" xmlns:xlink="http://www.w3.org/1999/xlink" x="0px" y="0px"
	 width="37.6px" height="63px" viewBox="0 0 37.6 63" enable-background="new 0 0 37.6 63" xml:space="preserve">
<rect x="0" fill="#ED1C24" width="37.6" height="63"/>
<g>
	<polygon fill="#FFFFFF" points="21.361,27.169 28.604,27.169 28.604,44.449 	"/>
	<polygon fill="#FFFFFF" points="16.255,27.169 9.004,27.169 9.004,44.449 	"/>
	<polygon fill="#FFFFFF" points="18.807,33.536 23.424,44.448 20.398,44.448 19.016,40.973 15.636,40.973 	"/>
	<g>
		<path fill="#FFFFFF" d="M30.085,27.169c0.464,0,0.834,0.373,0.834,0.839c0,0.473-0.37,0.847-0.838,0.847s-0.847-0.374-0.847-0.847
			c0-0.466,0.379-0.839,0.847-0.839H30.085z M30.081,27.312c-0.371,0-0.67,0.312-0.67,0.699c0,0.389,0.299,0.7,0.674,0.7
			c0.37,0.004,0.667-0.312,0.667-0.7c0-0.387-0.297-0.699-0.667-0.699H30.081z M29.928,28.498h-0.171v-0.935
			c0.079-0.014,0.157-0.027,0.282-0.027c0.149,0,0.243,0.029,0.306,0.077c0.052,0.038,0.08,0.104,0.08,0.191
			c0,0.121-0.078,0.2-0.182,0.226v0.009c0.082,0.015,0.135,0.089,0.152,0.228c0.023,0.146,0.043,0.203,0.059,0.231h-0.172
			c-0.021-0.028-0.041-0.114-0.062-0.239c-0.02-0.111-0.081-0.158-0.196-0.158h-0.099v0.397H29.928z M29.928,27.972h0.102
			c0.121,0,0.224-0.041,0.224-0.15c0-0.083-0.06-0.157-0.216-0.157c-0.051,0-0.084,0-0.108,0.003L29.928,27.972L29.928,27.972z"/>
	</g>
	<path fill="#FFFFFF" d="M11.636,51.673l-0.229-1.354c-0.067-0.394-0.149-1.004-0.21-1.426h-0.023
		c-0.068,0.424-0.162,1.053-0.231,1.428l-0.247,1.354L11.636,51.673L11.636,51.673z M10.571,52.559l-0.298,1.504H9.167l1.377-6.261
		h1.353l1.25,6.261h-1.11l-0.292-1.504H10.571z"/>
	<path fill="#FFFFFF" d="M15.657,51.266c0-0.082,0-0.182-0.017-0.271c-0.043-0.309-0.21-0.588-0.476-0.588
		c-0.45,0-0.619,0.654-0.619,1.418c0,0.88,0.24,1.382,0.604,1.382c0.17,0,0.364-0.087,0.47-0.455
		c0.024-0.071,0.038-0.173,0.038-0.288V51.266z M16.792,47.634v5.13c0,0.409,0.021,0.907,0.037,1.299h-0.979l-0.065-0.521h-0.022
		c-0.164,0.32-0.522,0.598-0.947,0.598c-0.938,0-1.402-1.031-1.402-2.332c0-1.584,0.695-2.354,1.447-2.354
		c0.392,0,0.65,0.19,0.779,0.469h0.019v-2.286L16.792,47.634L16.792,47.634z"/>
	<path fill="#FFFFFF" d="M19.148,53.271c0.431,0,0.541-0.812,0.541-1.485c0-0.638-0.11-1.47-0.561-1.47
		c-0.479,0-0.58,0.832-0.58,1.47c0,0.772,0.128,1.485,0.59,1.485H19.148z M19.126,54.139c-1.04,0-1.696-0.839-1.696-2.334
		c0-1.631,0.842-2.354,1.722-2.354c1.033,0,1.679,0.876,1.679,2.33c0,1.867-1.012,2.357-1.693,2.357H19.126z"/>
	<path fill="#FFFFFF" d="M22.596,52.441c0,0.113,0.02,0.22,0.043,0.289c0.113,0.381,0.309,0.476,0.461,0.476
		c0.438,0,0.616-0.554,0.616-1.438c0-0.805-0.188-1.36-0.621-1.36c-0.216,0-0.396,0.233-0.458,0.483
		c-0.021,0.077-0.041,0.199-0.041,0.286V52.441z M21.464,47.634h1.133v2.363h0.018c0.224-0.349,0.521-0.547,0.953-0.547
		c0.854,0,1.283,0.968,1.283,2.229c0,1.602-0.643,2.459-1.47,2.459c-0.397,0-0.66-0.177-0.897-0.619H22.46l-0.062,0.543h-0.972
		c0.017-0.379,0.038-0.89,0.038-1.299L21.464,47.634L21.464,47.634z"/>
	<path fill="#FFFFFF" d="M27.562,51.361c0.004-0.639-0.181-1.088-0.541-1.088c-0.412,0-0.586,0.603-0.599,1.088H27.562z
		 M26.419,52.158c0.014,0.82,0.446,1.089,0.984,1.089c0.343,0,0.635-0.074,0.851-0.158l0.155,0.812
		c-0.302,0.131-0.767,0.211-1.212,0.211c-1.217,0-1.878-0.825-1.878-2.239c0-1.519,0.768-2.427,1.773-2.427
		c0.974,0,1.513,0.803,1.513,2.119c0,0.3-0.015,0.468-0.035,0.602L26.419,52.158z"/>
</g>
</svg>
